<mxfile host="drawio-plugin" modified="2023-10-17T12:28:26.953Z" agent="5.0 (Windows NT 6.2; Win64; x64) AppleWebKit/537.36 (KHTML, like Gecko) Chrome/97.0.4692.45 Safari/537.36" etag="93Ax7YKtG-6ui2MLVDEw" version="20.5.3" type="embed"><diagram name="第 1 页" id="IB6P-aDsFnDUADC4PD2R"><mxGraphModel dx="1203" dy="779" grid="1" gridSize="10" guides="1" tooltips="1" connect="1" arrows="1" fold="1" page="1" pageScale="1" pageWidth="827" pageHeight="1169" background="none" math="0" shadow="0"><root><mxCell id="0"/><mxCell id="1" parent="0"/><mxCell id="9FuA_LAmP3qdgTYeK0pm-8" style="edgeStyle=orthogonalEdgeStyle;rounded=0;orthogonalLoop=1;jettySize=auto;html=1;entryX=0;entryY=0.5;entryDx=0;entryDy=0;" parent="1" source="9FuA_LAmP3qdgTYeK0pm-1" target="9FuA_LAmP3qdgTYeK0pm-4" edge="1"><mxGeometry relative="1" as="geometry"><Array as="points"><mxPoint x="139" y="190"/></Array></mxGeometry></mxCell><mxCell id="9FuA_LAmP3qdgTYeK0pm-1" value="&lt;font style=&quot;font-size: 20px;&quot;&gt;main process&lt;/font&gt;" style="rounded=0;whiteSpace=wrap;html=1;" parent="1" vertex="1"><mxGeometry x="69" y="430" width="160" height="60" as="geometry"/></mxCell><mxCell id="9FuA_LAmP3qdgTYeK0pm-25" style="edgeStyle=orthogonalEdgeStyle;rounded=0;orthogonalLoop=1;jettySize=auto;html=1;fillColor=#dae8fc;strokeColor=#6c8ebf;strokeWidth=3;" parent="1" source="9FuA_LAmP3qdgTYeK0pm-2" target="9FuA_LAmP3qdgTYeK0pm-24" edge="1"><mxGeometry relative="1" as="geometry"/></mxCell><mxCell id="37" style="edgeStyle=orthogonalEdgeStyle;rounded=0;orthogonalLoop=1;jettySize=auto;html=1;exitX=0.25;exitY=1;exitDx=0;exitDy=0;entryX=0.25;entryY=0;entryDx=0;entryDy=0;strokeWidth=3;fontSize=13;fillColor=#e1d5e7;strokeColor=#9673a6;" edge="1" parent="1" source="9FuA_LAmP3qdgTYeK0pm-2" target="9FuA_LAmP3qdgTYeK0pm-24"><mxGeometry relative="1" as="geometry"/></mxCell><mxCell id="39" style="edgeStyle=orthogonalEdgeStyle;rounded=0;orthogonalLoop=1;jettySize=auto;html=1;exitX=0.75;exitY=1;exitDx=0;exitDy=0;entryX=1;entryY=0.5;entryDx=0;entryDy=0;strokeWidth=3;fontSize=13;fillColor=#dae8fc;strokeColor=#6c8ebf;" edge="1" parent="1" source="9FuA_LAmP3qdgTYeK0pm-2" target="34"><mxGeometry relative="1" as="geometry"><Array as="points"><mxPoint x="429" y="660"/><mxPoint x="484" y="660"/><mxPoint x="484" y="820"/></Array></mxGeometry></mxCell><mxCell id="9FuA_LAmP3qdgTYeK0pm-2" value="&lt;font style=&quot;font-size: 20px;&quot;&gt;http server&lt;/font&gt;" style="rounded=0;whiteSpace=wrap;html=1;" parent="1" vertex="1"><mxGeometry x="339" y="560" width="120" height="60" as="geometry"/></mxCell><mxCell id="9FuA_LAmP3qdgTYeK0pm-26" style="edgeStyle=orthogonalEdgeStyle;rounded=0;orthogonalLoop=1;jettySize=auto;html=1;entryX=1;entryY=0.75;entryDx=0;entryDy=0;fillColor=#ffe6cc;strokeColor=#d79b00;" parent="1" source="9FuA_LAmP3qdgTYeK0pm-3" target="9FuA_LAmP3qdgTYeK0pm-24" edge="1"><mxGeometry relative="1" as="geometry"><Array as="points"><mxPoint x="699" y="730"/></Array></mxGeometry></mxCell><mxCell id="9FuA_LAmP3qdgTYeK0pm-3" value="&lt;font style=&quot;font-size: 20px;&quot;&gt;websocket&lt;/font&gt;" style="rounded=0;whiteSpace=wrap;html=1;" parent="1" vertex="1"><mxGeometry x="639" y="430" width="120" height="60" as="geometry"/></mxCell><mxCell id="VNE2r1LoNPJBioJwK5zJ-13" style="edgeStyle=orthogonalEdgeStyle;rounded=0;orthogonalLoop=1;jettySize=auto;html=1;" parent="1" target="VNE2r1LoNPJBioJwK5zJ-6" edge="1"><mxGeometry relative="1" as="geometry"><mxPoint x="359" y="230" as="sourcePoint"/><Array as="points"><mxPoint x="357" y="220"/><mxPoint x="359" y="220"/></Array></mxGeometry></mxCell><mxCell id="17" style="edgeStyle=orthogonalEdgeStyle;rounded=0;orthogonalLoop=1;jettySize=auto;html=1;exitX=0.75;exitY=1;exitDx=0;exitDy=0;fontSize=13;" edge="1" parent="1" source="9FuA_LAmP3qdgTYeK0pm-4" target="15"><mxGeometry relative="1" as="geometry"/></mxCell><mxCell id="9FuA_LAmP3qdgTYeK0pm-4" value="&lt;font style=&quot;font-size: 20px;&quot;&gt;plugin system&lt;/font&gt;" style="rounded=0;whiteSpace=wrap;html=1;" parent="1" vertex="1"><mxGeometry x="319" y="160" width="230" height="60" as="geometry"/></mxCell><mxCell id="9FuA_LAmP3qdgTYeK0pm-12" style="edgeStyle=orthogonalEdgeStyle;rounded=0;orthogonalLoop=1;jettySize=auto;html=1;exitX=0.75;exitY=1;exitDx=0;exitDy=0;entryX=0;entryY=0.25;entryDx=0;entryDy=0;" parent="1" source="9FuA_LAmP3qdgTYeK0pm-1" target="9FuA_LAmP3qdgTYeK0pm-2" edge="1"><mxGeometry relative="1" as="geometry"><mxPoint x="399" y="490" as="sourcePoint"/><Array as="points"><mxPoint x="139" y="490"/><mxPoint x="139" y="575"/></Array></mxGeometry></mxCell><mxCell id="9FuA_LAmP3qdgTYeK0pm-13" style="edgeStyle=orthogonalEdgeStyle;rounded=0;orthogonalLoop=1;jettySize=auto;html=1;exitX=1;exitY=0.75;exitDx=0;exitDy=0;" parent="1" source="9FuA_LAmP3qdgTYeK0pm-1" edge="1"><mxGeometry relative="1" as="geometry"><mxPoint x="479" y="475" as="sourcePoint"/><mxPoint x="639" y="460" as="targetPoint"/><Array as="points"><mxPoint x="229" y="460"/><mxPoint x="639" y="460"/></Array></mxGeometry></mxCell><mxCell id="9FuA_LAmP3qdgTYeK0pm-14" value="开启" style="text;html=1;strokeColor=none;fillColor=none;align=center;verticalAlign=middle;whiteSpace=wrap;rounded=0;" parent="1" vertex="1"><mxGeometry x="189" y="160" width="60" height="30" as="geometry"/></mxCell><mxCell id="9FuA_LAmP3qdgTYeK0pm-16" value="开启" style="text;html=1;strokeColor=none;fillColor=none;align=center;verticalAlign=middle;whiteSpace=wrap;rounded=0;" parent="1" vertex="1"><mxGeometry x="200" y="540" width="60" height="30" as="geometry"/></mxCell><mxCell id="9FuA_LAmP3qdgTYeK0pm-17" value="开启" style="text;html=1;strokeColor=none;fillColor=none;align=center;verticalAlign=middle;whiteSpace=wrap;rounded=0;" parent="1" vertex="1"><mxGeometry x="369" y="430" width="60" height="30" as="geometry"/></mxCell><mxCell id="9" style="edgeStyle=orthogonalEdgeStyle;rounded=0;orthogonalLoop=1;jettySize=auto;html=1;exitX=0;exitY=0.5;exitDx=0;exitDy=0;entryX=1;entryY=0.5;entryDx=0;entryDy=0;" edge="1" parent="1" source="9FuA_LAmP3qdgTYeK0pm-20" target="9FuA_LAmP3qdgTYeK0pm-4"><mxGeometry relative="1" as="geometry"/></mxCell><mxCell id="9FuA_LAmP3qdgTYeK0pm-20" value="&lt;font style=&quot;font-size: 20px;&quot;&gt;msg plugins&lt;/font&gt;" style="rounded=0;whiteSpace=wrap;html=1;" parent="1" vertex="1"><mxGeometry x="619" y="160" width="120" height="60" as="geometry"/></mxCell><mxCell id="2" style="edgeStyle=orthogonalEdgeStyle;rounded=0;orthogonalLoop=1;jettySize=auto;html=1;exitX=1;exitY=0.25;exitDx=0;exitDy=0;entryX=0.365;entryY=0.988;entryDx=0;entryDy=0;entryPerimeter=0;" edge="1" parent="1" source="9FuA_LAmP3qdgTYeK0pm-24" target="9FuA_LAmP3qdgTYeK0pm-3"><mxGeometry relative="1" as="geometry"/></mxCell><mxCell id="9FuA_LAmP3qdgTYeK0pm-24" value="&lt;font style=&quot;font-size: 20px;&quot;&gt;前端&lt;/font&gt;" style="rounded=1;whiteSpace=wrap;html=1;" parent="1" vertex="1"><mxGeometry x="339" y="685" width="120" height="60" as="geometry"/></mxCell><mxCell id="9FuA_LAmP3qdgTYeK0pm-27" value="发送消息（ws）" style="text;html=1;strokeColor=none;fillColor=none;align=center;verticalAlign=middle;whiteSpace=wrap;rounded=0;" parent="1" vertex="1"><mxGeometry x="549" y="740" width="90" height="30" as="geometry"/></mxCell><mxCell id="9FuA_LAmP3qdgTYeK0pm-29" value="迭代消息" style="text;html=1;strokeColor=none;fillColor=none;align=center;verticalAlign=middle;whiteSpace=wrap;rounded=0;" parent="1" vertex="1"><mxGeometry x="404" y="240" width="60" height="30" as="geometry"/></mxCell><mxCell id="VNE2r1LoNPJBioJwK5zJ-11" style="edgeStyle=orthogonalEdgeStyle;rounded=0;orthogonalLoop=1;jettySize=auto;html=1;exitX=0.5;exitY=1;exitDx=0;exitDy=0;fillColor=#ffe6cc;strokeColor=#d79b00;entryX=0;entryY=0.5;entryDx=0;entryDy=0;" parent="1" source="VNE2r1LoNPJBioJwK5zJ-6" target="15" edge="1"><mxGeometry relative="1" as="geometry"><mxPoint x="399" y="430" as="targetPoint"/></mxGeometry></mxCell><mxCell id="VNE2r1LoNPJBioJwK5zJ-6" value="&lt;font style=&quot;font-size: 20px;&quot;&gt;msg process&lt;/font&gt;" style="rounded=0;whiteSpace=wrap;html=1;" parent="1" vertex="1"><mxGeometry x="319" y="280" width="130" height="60" as="geometry"/></mxCell><mxCell id="VNE2r1LoNPJBioJwK5zJ-9" value="提供" style="text;html=1;strokeColor=none;fillColor=none;align=center;verticalAlign=middle;whiteSpace=wrap;rounded=0;" parent="1" vertex="1"><mxGeometry x="309" y="240" width="60" height="30" as="geometry"/></mxCell><mxCell id="VNE2r1LoNPJBioJwK5zJ-12" value="迭代消息" style="text;html=1;strokeColor=none;fillColor=none;align=center;verticalAlign=middle;whiteSpace=wrap;rounded=0;" parent="1" vertex="1"><mxGeometry x="399" y="360" width="140" height="30" as="geometry"/></mxCell><mxCell id="3" value="提供参数" style="text;html=1;strokeColor=none;fillColor=none;align=center;verticalAlign=middle;whiteSpace=wrap;rounded=0;" vertex="1" parent="1"><mxGeometry x="539" y="670" width="90" height="30" as="geometry"/></mxCell><mxCell id="13" value="" style="endArrow=classic;html=1;rounded=0;exitX=0.34;exitY=1.012;exitDx=0;exitDy=0;exitPerimeter=0;fillColor=#ffe6cc;strokeColor=#d79b00;" edge="1" parent="1" source="9FuA_LAmP3qdgTYeK0pm-4"><mxGeometry width="50" height="50" relative="1" as="geometry"><mxPoint x="369" y="440" as="sourcePoint"/><mxPoint x="399" y="280" as="targetPoint"/></mxGeometry></mxCell><mxCell id="16" style="edgeStyle=orthogonalEdgeStyle;rounded=0;orthogonalLoop=1;jettySize=auto;html=1;exitX=0.5;exitY=1;exitDx=0;exitDy=0;entryX=0.5;entryY=0;entryDx=0;entryDy=0;fontSize=13;fillColor=#ffe6cc;strokeColor=#d79b00;" edge="1" parent="1" source="15" target="9FuA_LAmP3qdgTYeK0pm-3"><mxGeometry relative="1" as="geometry"/></mxCell><mxCell id="15" value="&lt;h3&gt;消息过滤器&lt;/h3&gt;" style="rounded=0;whiteSpace=wrap;html=1;" vertex="1" parent="1"><mxGeometry x="639" y="280" width="120" height="60" as="geometry"/></mxCell><mxCell id="18" value="提供" style="text;html=1;strokeColor=none;fillColor=none;align=center;verticalAlign=middle;whiteSpace=wrap;rounded=0;" vertex="1" parent="1"><mxGeometry x="529" y="250" width="60" height="30" as="geometry"/></mxCell><mxCell id="20" style="edgeStyle=orthogonalEdgeStyle;rounded=0;orthogonalLoop=1;jettySize=auto;html=1;exitX=0.5;exitY=1;exitDx=0;exitDy=0;entryX=0.439;entryY=-0.036;entryDx=0;entryDy=0;entryPerimeter=0;fontSize=13;" edge="1" parent="1" source="19" target="9FuA_LAmP3qdgTYeK0pm-4"><mxGeometry relative="1" as="geometry"/></mxCell><mxCell id="19" value="&lt;font style=&quot;font-size: 20px;&quot;&gt;anaylazer plugins&lt;/font&gt;" style="rounded=0;whiteSpace=wrap;html=1;" vertex="1" parent="1"><mxGeometry x="359" y="30" width="120" height="60" as="geometry"/></mxCell><mxCell id="22" style="edgeStyle=orthogonalEdgeStyle;rounded=0;orthogonalLoop=1;jettySize=auto;html=1;exitX=0;exitY=0.5;exitDx=0;exitDy=0;entryX=1;entryY=0.5;entryDx=0;entryDy=0;fontSize=13;fillColor=#dae8fc;strokeColor=#6c8ebf;" edge="1" parent="1" source="21" target="19"><mxGeometry relative="1" as="geometry"/></mxCell><mxCell id="23" style="edgeStyle=orthogonalEdgeStyle;rounded=0;orthogonalLoop=1;jettySize=auto;html=1;exitX=0.5;exitY=1;exitDx=0;exitDy=0;entryX=0.5;entryY=0;entryDx=0;entryDy=0;fontSize=13;fillColor=#dae8fc;strokeColor=#6c8ebf;" edge="1" parent="1" source="21" target="9FuA_LAmP3qdgTYeK0pm-20"><mxGeometry relative="1" as="geometry"/></mxCell><mxCell id="24" style="edgeStyle=orthogonalEdgeStyle;rounded=0;orthogonalLoop=1;jettySize=auto;html=1;exitX=1;exitY=0.5;exitDx=0;exitDy=0;entryX=1;entryY=0.5;entryDx=0;entryDy=0;fontSize=13;fillColor=#e1d5e7;strokeColor=#9673a6;strokeWidth=3;" edge="1" parent="1" source="21" target="9FuA_LAmP3qdgTYeK0pm-2"><mxGeometry relative="1" as="geometry"><Array as="points"><mxPoint x="790" y="60"/><mxPoint x="790" y="590"/></Array></mxGeometry></mxCell><mxCell id="32" style="edgeStyle=orthogonalEdgeStyle;rounded=0;orthogonalLoop=1;jettySize=auto;html=1;exitX=1;exitY=0.25;exitDx=0;exitDy=0;entryX=1;entryY=0.25;entryDx=0;entryDy=0;strokeWidth=3;fontSize=13;fillColor=#d5e8d4;strokeColor=#82b366;" edge="1" parent="1" source="21" target="9FuA_LAmP3qdgTYeK0pm-2"><mxGeometry relative="1" as="geometry"><Array as="points"><mxPoint x="810" y="45"/><mxPoint x="810" y="575"/></Array></mxGeometry></mxCell><mxCell id="21" value="&lt;h2&gt;plugin&lt;/h2&gt;" style="rounded=0;whiteSpace=wrap;html=1;fontSize=13;" vertex="1" parent="1"><mxGeometry x="619" y="30" width="120" height="60" as="geometry"/></mxCell><mxCell id="25" value="&lt;h3&gt;&lt;span style=&quot;font-weight: 400;&quot;&gt;前端js插件&lt;/span&gt;&lt;/h3&gt;" style="text;html=1;strokeColor=none;fillColor=none;align=center;verticalAlign=middle;whiteSpace=wrap;rounded=0;fontSize=13;" vertex="1" parent="1"><mxGeometry x="509" y="590" width="80" height="30" as="geometry"/></mxCell><mxCell id="28" style="edgeStyle=orthogonalEdgeStyle;rounded=0;orthogonalLoop=1;jettySize=auto;html=1;entryX=0;entryY=0.5;entryDx=0;entryDy=0;strokeWidth=3;fontSize=13;fillColor=#e1d5e7;strokeColor=#9673a6;exitX=0.5;exitY=0;exitDx=0;exitDy=0;" edge="1" parent="1" source="26" target="9FuA_LAmP3qdgTYeK0pm-2"><mxGeometry relative="1" as="geometry"/></mxCell><mxCell id="26" value="" style="shape=datastore;whiteSpace=wrap;html=1;fontSize=13;" vertex="1" parent="1"><mxGeometry x="110" y="655" width="60" height="60" as="geometry"/></mxCell><mxCell id="27" value="本地磁盘" style="text;html=1;strokeColor=none;fillColor=none;align=center;verticalAlign=middle;whiteSpace=wrap;rounded=0;fontSize=13;" vertex="1" parent="1"><mxGeometry x="100" y="720" width="60" height="30" as="geometry"/></mxCell><mxCell id="29" value="&lt;h3&gt;&lt;span style=&quot;font-weight: 400;&quot;&gt;前端js插件&lt;/span&gt;&lt;/h3&gt;" style="text;html=1;strokeColor=none;fillColor=none;align=center;verticalAlign=middle;whiteSpace=wrap;rounded=0;fontSize=13;" vertex="1" parent="1"><mxGeometry x="169" y="590" width="80" height="30" as="geometry"/></mxCell><mxCell id="33" value="&lt;h3&gt;&lt;span style=&quot;font-weight: normal;&quot;&gt;自定义cgi&lt;/span&gt;&lt;/h3&gt;" style="text;html=1;strokeColor=none;fillColor=none;align=center;verticalAlign=middle;whiteSpace=wrap;rounded=0;fontSize=13;" vertex="1" parent="1"><mxGeometry x="509" y="540" width="81" height="30" as="geometry"/></mxCell><mxCell id="34" value="&lt;p style=&quot;font-size: 18px;&quot;&gt;cgi页面&lt;/p&gt;" style="rounded=1;whiteSpace=wrap;html=1;fontSize=13;align=center;" vertex="1" parent="1"><mxGeometry x="339" y="790" width="120" height="60" as="geometry"/></mxCell><mxCell id="38" value="&lt;h3&gt;&lt;span style=&quot;font-weight: 400;&quot;&gt;前端js插件&lt;/span&gt;&lt;/h3&gt;" style="text;html=1;strokeColor=none;fillColor=none;align=center;verticalAlign=middle;whiteSpace=wrap;rounded=0;fontSize=13;" vertex="1" parent="1"><mxGeometry x="289" y="640" width="80" height="30" as="geometry"/></mxCell></root></mxGraphModel></diagram></mxfile>